<svg id="Layer_1" data-name="Layer 1" xmlns="http://www.w3.org/2000/svg" viewBox="0 0 58.26 54.33"><defs><style>.cls-1{fill:#d5f0e0;}</style></defs><title>all icons</title><path class="cls-1" d="M54.11,5.39s-8-2.87-25-2.87c-15.51,0-25,2.87-25,2.87a1.78,1.78,0,0,0-1.5,2,1.78,1.78,0,0,0,1.5,2h0V20.57A5,5,0,0,0,7.46,25.1v21H6.24a1.71,1.71,0,0,0-1.82,1.6v2.55a1.72,1.72,0,0,0,1.82,1.6H52a1.72,1.72,0,0,0,1.83-1.6V47.66A1.72,1.72,0,0,0,52,46.06H50.79v-21a5,5,0,0,0,3.28-4.53V9.32h0a1.79,1.79,0,0,0,1.51-2A1.8,1.8,0,0,0,54.11,5.39Z"/></svg>