<svg id="Layer_1" data-name="Layer 1" xmlns="http://www.w3.org/2000/svg" viewBox="0 0 24 24"><defs><style>.cls-1{fill:#bdbdbd;}</style></defs><title>all icons</title><polygon class="cls-1" points="14 11.36 10 11.36 10 18.66 8 18.66 12 23.66 16 18.66 14 18.66 14 11.36"/><circle class="cls-1" cx="12" cy="7.59" r="1"/><circle class="cls-1" cx="7" cy="7.59" r="1"/><circle class="cls-1" cx="17" cy="7.59" r="1"/><path class="cls-1" d="M18.84.4H5.16a3.22,3.22,0,0,0-3.36,3V14.19a3.21,3.21,0,0,0,3.36,3H7.41v-2H5.16a1.25,1.25,0,0,1-1.36-1V3.44a1.25,1.25,0,0,1,1.36-1H18.84a1.25,1.25,0,0,1,1.36,1V14.19a1.25,1.25,0,0,1-1.36,1H16.92v2h1.92a3.21,3.21,0,0,0,3.36-3V3.44A3.22,3.22,0,0,0,18.84.4Z"/></svg>