<svg id="Layer_1" data-name="Layer 1" xmlns="http://www.w3.org/2000/svg" viewBox="0 0 24 24"><defs><style>.cls-1{fill:#bdbdbd;fill-rule:evenodd;}</style></defs><title>all icons</title><path class="cls-1" d="M3.72,20.23v.57A3.07,3.07,0,0,0,7,23.65H17.05a3,3,0,0,0,3.23-2.84v-.59A1.59,1.59,0,0,0,21,18.88a1.62,1.62,0,0,0-.72-1.34V7A3.07,3.07,0,0,0,17,4.16H13.8V2.09a1.8,1.8,0,0,0-3.6,0V4.16H7A3.06,3.06,0,0,0,3.72,7V17.54a1.62,1.62,0,0,0,0,2.69Zm16.56-2.69h0m-1.09,1,1.09,1.67h0M5.72,20.8V19.14l-.39-.26.39-.25V7A.66.66,0,0,1,6,6.5a1.43,1.43,0,0,1,1-.34H17a1.45,1.45,0,0,1,1,.34.68.68,0,0,1,.27.51V18.62l.4.26-.4.26v1.67a.68.68,0,0,1-.26.5,1.45,1.45,0,0,1-1,.34H7a1.45,1.45,0,0,1-1-.34A.66.66,0,0,1,5.72,20.8Z"/></svg>