<svg id="Layer_1" data-name="Layer 1" xmlns="http://www.w3.org/2000/svg" viewBox="0 0 24 24"><defs><style>.cls-1{fill:#4f4f4f;}</style></defs><title>all icons</title><path class="cls-1" d="M19.43,13a8.07,8.07,0,0,0,.07-1,8.07,8.07,0,0,0-.07-1l2.11-1.65a.47.47,0,0,0,.18-.3.5.5,0,0,0-.06-.34l-2-3.46a.46.46,0,0,0-.27-.22.5.5,0,0,0-.34,0l-2.49,1a7.52,7.52,0,0,0-1.69-1l-.38-2.65a.45.45,0,0,0-.16-.3A.52.52,0,0,0,14,2H10a.47.47,0,0,0-.32.12.51.51,0,0,0-.17.3L9.13,5.07a7.52,7.52,0,0,0-1.69,1L5,5.05a.5.5,0,0,0-.34,0,.46.46,0,0,0-.27.22l-2,3.46a.51.51,0,0,0-.06.34.49.49,0,0,0,.18.3L4.57,11a7.93,7.93,0,0,0-.07,1,7.93,7.93,0,0,0,.07,1L2.46,14.63a.49.49,0,0,0-.18.3.51.51,0,0,0,.06.34l2,3.46a.46.46,0,0,0,.27.22A.5.5,0,0,0,5,19l2.49-1a7.52,7.52,0,0,0,1.69,1l.38,2.65a.42.42,0,0,0,.17.3A.47.47,0,0,0,10,22h4a.47.47,0,0,0,.32-.12.51.51,0,0,0,.17-.3l.38-2.65a7.2,7.2,0,0,0,1.69-1l2.49,1a.51.51,0,0,0,.61-.22l2-3.46a.52.52,0,0,0,.06-.34.49.49,0,0,0-.18-.3L19.43,13ZM12,15.5A3.52,3.52,0,0,1,8.5,12,3.5,3.5,0,1,1,12,15.5Z"/></svg>