<svg id="Layer_1" data-name="Layer 1" xmlns="http://www.w3.org/2000/svg" viewBox="0 0 39.74 40.19"><defs><style>.cls-1{fill:#feffff;}</style></defs><title>fonts2</title><path class="cls-1" d="M22.6,12.94a3.9,3.9,0,1,0-5.52,0,3.9,3.9,0,0,0,5.52,0m-4-1.55a1.7,1.7,0,0,1,0-2.41,1.7,1.7,0,1,1,0,2.41Z"/><path class="cls-1" d="M6.85,23.15a3.9,3.9,0,1,0,0-5.51,3.92,3.92,0,0,0,0,5.51m4-4A1.7,1.7,0,1,1,8.41,21.6a1.7,1.7,0,0,1,0-2.41A1.71,1.71,0,0,1,10.82,19.19Z"/><path class="cls-1" d="M22.84,28a3.9,3.9,0,1,0,0,5.51,3.91,3.91,0,0,0,0-5.51m-4,4a1.7,1.7,0,1,1,2.42,0A1.71,1.71,0,0,1,18.87,32Z"/><path class="cls-1" d="M33.07,17.81a3.9,3.9,0,1,0,0,5.52,3.91,3.91,0,0,0,0-5.52m-4,4a1.7,1.7,0,1,1,2.41-2.4,1.7,1.7,0,0,1-2.41,2.4Z"/><path class="cls-1" d="M27.84,28.47a40.29,40.29,0,0,0-2.09-5.13,5.59,5.59,0,0,1,.78-6.51,5.31,5.31,0,1,1,1.16,8.38,18.14,18.14,0,0,1,1.17,3.4A8.16,8.16,0,1,0,27.55,12.9,8.17,8.17,0,0,0,19.85,2h0a8.19,8.19,0,0,0-5.78,2.39,7.74,7.74,0,0,0-2.37,5.3,10,10,0,0,0,.39,2.78,39.14,39.14,0,0,0,2.09,5.13,5.6,5.6,0,0,1-.78,6.52,5.31,5.31,0,1,1-1.16-8.39,17.67,17.67,0,0,1-1.17-3.4,8.16,8.16,0,1,0,1.31,15.72,8.17,8.17,0,0,0,13.49,8.48,7.72,7.72,0,0,0,2.37-5.29,10,10,0,0,0-.39-2.79m-5.71-7.76a8.15,8.15,0,0,1,.46-2.85A8.39,8.39,0,0,0,22.13,20.71Zm-4.38.51a8.67,8.67,0,0,1-.42,1.88A8.67,8.67,0,0,0,17.75,21.22ZM16.32,34.54a5.31,5.31,0,0,1,6.33-8.4,22.28,22.28,0,0,1-1.12-3.38,8.23,8.23,0,0,0-4.2.34,7.69,7.69,0,0,0,.39-3.8c-.26-1.49-1.59-4-2.43-6.12-1-2.35-1-5,.79-6.75a5.31,5.31,0,1,1,1.19,8.4,22.28,22.28,0,0,1,1.12,3.38,8.23,8.23,0,0,0,4.2-.35,7.7,7.7,0,0,0-.39,3.8c.26,1.49,1.59,4,2.43,6.12,1,2.35,1,5-.79,6.76A5.35,5.35,0,0,1,16.32,34.54Z"/></svg>