<svg id="Layer_1" data-name="Layer 1" xmlns="http://www.w3.org/2000/svg" viewBox="0 0 24 24"><defs><style>.cls-1{fill:#4f4f4f;}</style></defs><title>all icons</title><path class="cls-1" d="M20.5,15.17,12,20,3.5,15.13A1,1,0,0,0,3.13,15a1.29,1.29,0,0,0-.39,0,.88.88,0,0,0-.35.17A1,1,0,0,0,2,16.26a1,1,0,0,0,.47.6l9,5.2a1,1,0,0,0,1,0l9-5.2a1,1,0,0,0,.47-.6,1,1,0,0,0-.36-1.06.88.88,0,0,0-.35-.17,1.29,1.29,0,0,0-.39,0,1,1,0,0,0-.37.13Zm0-4L12,16,3.5,11.13A1,1,0,0,0,3.13,11a1.29,1.29,0,0,0-.39,0,.88.88,0,0,0-.35.17A1,1,0,0,0,2,12.26a1,1,0,0,0,.47.6l9,5.2a1,1,0,0,0,1,0l9-5.2a1,1,0,0,0,.47-.6,1,1,0,0,0-.36-1.06.88.88,0,0,0-.35-.17,1.29,1.29,0,0,0-.39,0,1,1,0,0,0-.37.13ZM12,4l7,4-7,4L5,8ZM2.5,8.86l9,5.2a1,1,0,0,0,1,0l9-5.2a1,1,0,0,0,.36-.36A1,1,0,0,0,22,8a1.06,1.06,0,0,0-.13-.5,1.09,1.09,0,0,0-.37-.37l-9-5.19a1,1,0,0,0-1,0l-9,5.19a1.09,1.09,0,0,0-.37.37A1.06,1.06,0,0,0,2,8a1,1,0,0,0,.14.5A1,1,0,0,0,2.5,8.86Z"/></svg>