<?xml version="1.0" encoding="utf-8"?>
<!-- Generator: Adobe Illustrator 23.0.1, SVG Export Plug-In . SVG Version: 6.00 Build 0)  -->
<svg version="1.1" id="Layer_1" xmlns="http://www.w3.org/2000/svg" xmlns:xlink="http://www.w3.org/1999/xlink" x="0px" y="0px"
	 viewBox="0 0 20.89 18.14" style="enable-background:new 0 0 20.89 18.14;" xml:space="preserve">
<style type="text/css">
	.st0{fill:#FFFFFF;}
</style>
<path class="st0" d="M10.23,0.95L1.12,8.5C1.04,8.57,0.97,8.66,0.93,8.76c-0.05,0.1-0.07,0.22-0.07,0.33v0
	c0,0.12,0.02,0.23,0.07,0.33c0.05,0.1,0.11,0.19,0.19,0.26l9.1,7.51c0.09,0.08,0.2,0.12,0.32,0.13c0.12,0.01,0.23-0.02,0.33-0.08
	c0.1-0.06,0.19-0.15,0.25-0.27c0.06-0.11,0.09-0.25,0.09-0.38v-3.53l8.18,0c0.08,0,0.16-0.02,0.24-0.06
	c0.08-0.04,0.15-0.09,0.2-0.16c0.06-0.07,0.1-0.15,0.14-0.24c0.03-0.09,0.05-0.18,0.05-0.28l0-6.54c0-0.1-0.02-0.19-0.05-0.28
	c-0.03-0.09-0.08-0.17-0.14-0.24c-0.06-0.07-0.13-0.12-0.2-0.16c-0.08-0.04-0.16-0.06-0.24-0.06h-8.18V1.54
	c0-0.27-0.13-0.52-0.34-0.65c-0.1-0.06-0.22-0.09-0.33-0.08C10.43,0.82,10.32,0.87,10.23,0.95z"/>
</svg>
