<svg id="Layer_1" data-name="Layer 1" xmlns="http://www.w3.org/2000/svg" viewBox="0 0 24 24"><defs><style>.cls-1{fill:#4f4f4f;}</style></defs><title>all icons</title><path class="cls-1" d="M13.26,18.24a1.18,1.18,0,0,1,.88.37,1.23,1.23,0,0,1,.36.89,1.19,1.19,0,0,1-.36.88,1.21,1.21,0,0,1-.88.36,1.23,1.23,0,0,1-.89-.36A1.16,1.16,0,0,1,12,19.5a1.26,1.26,0,0,1,1.26-1.26Zm0-5h2.5a1.24,1.24,0,1,1,0,2.48h-2.5a1.22,1.22,0,0,1-.88-.36,1.23,1.23,0,0,1,0-1.76A1.22,1.22,0,0,1,13.25,13.26Zm0-5h5A1.23,1.23,0,0,1,19.49,9.5a1.23,1.23,0,0,1-.36.89,1.17,1.17,0,0,1-.89.37h-5A1.26,1.26,0,0,1,12,9.5a1.16,1.16,0,0,1,.37-.88A1.22,1.22,0,0,1,13.25,8.26Zm-7,13.57a.79.79,0,0,1-.5.16.8.8,0,0,1-.51-.16l-3-4a.47.47,0,0,1,0-.78H4.53V3.26a1.22,1.22,0,0,1,.36-.88A1.16,1.16,0,0,1,5.77,2a1.18,1.18,0,0,1,.88.37A1.19,1.19,0,0,1,7,3.26V17H9.31a.5.5,0,0,1,0,.78ZM20.74,5.76H13.25A1.26,1.26,0,0,1,12,4.5a1.16,1.16,0,0,1,.37-.88,1.22,1.22,0,0,1,.88-.36h7.49a1.19,1.19,0,0,1,.89.37,1.26,1.26,0,0,1,0,1.76A1.19,1.19,0,0,1,20.74,5.76Z"/></svg>