<svg id="Layer_1" data-name="Layer 1" xmlns="http://www.w3.org/2000/svg" viewBox="0 0 24 24"><defs><style>.cls-1{opacity:0.25;}.cls-2{fill:#fff;}</style></defs><title>all icons</title><path class="cls-1" d="M14.51,18.5a1,1,0,0,1,.7.29,1,1,0,0,1,.29.72,1,1,0,0,1-1.7.7.94.94,0,0,1-.3-.7,1,1,0,0,1,1-1Zm0-4h2a1,1,0,0,1,.71.29,1,1,0,0,1,.29.7,1,1,0,0,1-1,1h-2a1,1,0,0,1-1-1,.94.94,0,0,1,.3-.7A1,1,0,0,1,14.5,14.51Zm0-4h4a1,1,0,0,1,.71,1.71,1,1,0,0,1-.71.3h-4a.94.94,0,0,1-.7-.3,1,1,0,0,1-.3-.71,1,1,0,0,1,1-1ZM8.91,21.37a.63.63,0,0,1-.41.13.62.62,0,0,1-.4-.13L5.68,18.14a.38.38,0,0,1,0-.63H7.52V6.5a1,1,0,0,1,.29-.7,1,1,0,0,1,1.41,0,1,1,0,0,1,.3.7v11h1.83a.4.4,0,0,1,.15.31.41.41,0,0,1-.15.32ZM20.49,8.5h-6a1,1,0,0,1-.7-.29,1,1,0,0,1-.3-.72.94.94,0,0,1,.3-.7,1,1,0,0,1,.7-.29h6a1,1,0,0,1,1,1,1,1,0,0,1-1,1Z"/><path class="cls-2" d="M13.51,17.5a1,1,0,0,1,.7.29,1,1,0,0,1,.29.72,1,1,0,0,1-1.7.7.94.94,0,0,1-.3-.7,1,1,0,0,1,1-1Zm0-4h2a1,1,0,0,1,.71.29,1,1,0,0,1,.29.7,1,1,0,0,1-1,1h-2a1,1,0,0,1-1-1,.94.94,0,0,1,.3-.7A1,1,0,0,1,13.5,13.51Zm0-4h4a1,1,0,0,1,.71,1.71,1,1,0,0,1-.71.3h-4a.94.94,0,0,1-.7-.3,1,1,0,0,1-.3-.71,1,1,0,0,1,1-1ZM7.91,20.37a.63.63,0,0,1-.41.13.62.62,0,0,1-.4-.13L4.68,17.14a.38.38,0,0,1,0-.63H6.52V5.5a1,1,0,0,1,.29-.7,1,1,0,0,1,1.41,0,1,1,0,0,1,.3.7v11h1.83a.4.4,0,0,1,.15.31.41.41,0,0,1-.15.32ZM19.49,7.5h-6a1,1,0,0,1-.7-.29,1,1,0,0,1-.3-.72.94.94,0,0,1,.3-.7,1,1,0,0,1,.7-.29h6a1,1,0,0,1,1,1,1,1,0,0,1-1,1Z"/></svg>