<svg id="Layer_1" data-name="Layer 1" xmlns="http://www.w3.org/2000/svg" viewBox="0 0 24 24"><defs><style>.cls-1{fill:#bdbdbd;}</style></defs><title>all icons</title><path class="cls-1" d="M4.22,5.1V2.8H19.78V5.1ZM17.56,9.7H9.78A1.08,1.08,0,0,0,9,10a1.15,1.15,0,0,0-.32.81v6.9a1.13,1.13,0,0,0,.32.81,1.08,1.08,0,0,0,.79.34h7.78v1.15a1.14,1.14,0,0,1-.33.81,1.08,1.08,0,0,1-.79.34H7.56a1.08,1.08,0,0,1-.79-.34,1.14,1.14,0,0,1-.33-.81V7.4H17.56Zm0,6.9H10.89V12h6.67ZM19.78.5H4.22a2.19,2.19,0,0,0-1.57.67A2.35,2.35,0,0,0,2,2.8V5.1a2.33,2.33,0,0,0,.65,1.63,2.19,2.19,0,0,0,1.57.67V20.05a3.49,3.49,0,0,0,1,2.44,3.25,3.25,0,0,0,2.36,1h8.88a3.25,3.25,0,0,0,2.36-1,3.49,3.49,0,0,0,1-2.44V7.4a2.19,2.19,0,0,0,1.57-.67A2.33,2.33,0,0,0,22,5.1V2.8a2.35,2.35,0,0,0-.65-1.63A2.19,2.19,0,0,0,19.78.5Z"/></svg>